HIERARCHY
ROOT hip
{
  OFFSET 92.8614 79.7603 -117.324
  CHANNELS 6 Xposition Yposition Zposition Zrotation Xrotation Yrotation
  JOINT abdomen
  {
    OFFSET 0 20.6881 -0.73152
    CHANNELS 3 Zrotation Xrotation Yrotation
    JOINT chest
    {
      OFFSET 0 11.7043 -0.48768
      CHANNELS 3 Zrotation Xrotation Yrotation
      JOINT neck
      {
        OFFSET 0 22.1894 -2.19456
        CHANNELS 3 Zrotation Xrotation Yrotation
        JOINT head
        {
          OFFSET -0.24384 7.07133 1.2192
          CHANNELS 3 Zrotation Xrotation Yrotation
          JOINT leftEye
          {
            OFFSET 4.14528 8.04674 8.04672
            CHANNELS 3 Zrotation Xrotation Yrotation
            End Site
            {
              OFFSET 1 0 0
            }
          }
          JOINT rightEye
          {
            OFFSET -3.6576 8.04674 8.04672
            CHANNELS 3 Zrotation Xrotation Yrotation
            End Site
            {
              OFFSET 1 0 0
            }
          }
        }
      }
      JOINT rCollar
      {
        OFFSET -2.68224 19.2634 -4.8768
        CHANNELS 3 Zrotation Xrotation Yrotation
        JOINT rShldr
        {
          OFFSET -8.77824 -1.95073 1.46304
          CHANNELS 3 Zrotation Xrotation Yrotation
          JOINT rForeArm
          {
            OFFSET -28.1742 -1.7115 0.48768
            CHANNELS 3 Zrotation Xrotation Yrotation
            JOINT rHand
            {
              OFFSET -22.5879 0.773209 7.07136
              CHANNELS 3 Zrotation Xrotation Yrotation
              JOINT rThumb1
              {
                OFFSET -1.2192 -0.487915 3.41376
                CHANNELS 3 Zrotation Xrotation Yrotation
                JOINT rThumb2
                {
                  OFFSET -3.37035 -0.52449 3.41376
                  CHANNELS 3 Zrotation Xrotation Yrotation
                  End Site
                  {
                    OFFSET -1.78271 -1.18214 1.43049
                  }
                }
              }
              JOINT rIndex1
              {
                OFFSET -7.75947 0.938293 5.60832
                CHANNELS 3 Zrotation Xrotation Yrotation
                JOINT rIndex2
                {
                  OFFSET -2.54057 -0.884171 1.56538
                  CHANNELS 3 Zrotation Xrotation Yrotation
                  End Site
                  {
                    OFFSET -1.62519 -0.234802 1.16502
                  }
                }
              }
              JOINT rMid1
              {
                OFFSET -8.24714 1.18213 3.41376
                CHANNELS 3 Zrotation Xrotation Yrotation
                JOINT rMid2
                {
                  OFFSET -3.10165 -0.590103 1.0647
                  CHANNELS 3 Zrotation Xrotation Yrotation
                  End Site
                  {
                    OFFSET -2.48547 -0.328903 0.83742
                  }
                }
              }
              JOINT rRing1
              {
                OFFSET -8.82822 0.546677 1.51678
                CHANNELS 3 Zrotation Xrotation Yrotation
                JOINT rRing2
                {
                  OFFSET -2.60934 -0.819778 -0.0198488
                  CHANNELS 3 Zrotation Xrotation Yrotation
                  End Site
                  {
                    OFFSET -2.33842 -0.294052 0.168128
                  }
                }
              }
              JOINT rPinky1
              {
                OFFSET -8.27202 -0.0477905 -0.4584
                CHANNELS 3 Zrotation Xrotation Yrotation
                JOINT rPinky2
                {
                  OFFSET -1.82734 -0.647385 -0.700984
                  CHANNELS 3 Zrotation Xrotation Yrotation
                  End Site
                  {
                    OFFSET -1.69225 -0.51767 -0.607171
                  }
                }
              }
            }
          }
        }
      }
      JOINT lCollar
      {
        OFFSET 2.68224 19.2634 -4.8768
        CHANNELS 3 Zrotation Xrotation Yrotation
        JOINT lShldr
        {
          OFFSET 8.77824 -1.95073 1.46304
          CHANNELS 3 Zrotation Xrotation Yrotation
          JOINT lForeArm
          {
            OFFSET 28.1742 -1.7115 0.48768
            CHANNELS 3 Zrotation Xrotation Yrotation
            JOINT lHand
            {
              OFFSET 22.5879 0.773209 7.07136
              CHANNELS 3 Zrotation Xrotation Yrotation
              JOINT lThumb1
              {
                OFFSET 1.2192 -0.487915 3.41376
                CHANNELS 3 Zrotation Xrotation Yrotation
                JOINT lThumb2
                {
                  OFFSET 3.37035 -0.52449 3.41376
                  CHANNELS 3 Zrotation Xrotation Yrotation
                  End Site
                  {
                    OFFSET 1.78271 -1.18214 1.43049
                  }
                }
              }
              JOINT lIndex1
              {
                OFFSET 7.75947 0.938293 5.60832
                CHANNELS 3 Zrotation Xrotation Yrotation
                JOINT lIndex2
                {
                  OFFSET 2.54057 -0.884171 1.56538
                  CHANNELS 3 Zrotation Xrotation Yrotation
                  End Site
                  {
                    OFFSET 1.62519 -0.234802 1.16502
                  }
                }
              }
              JOINT lMid1
              {
                OFFSET 8.24714 1.18213 3.41376
                CHANNELS 3 Zrotation Xrotation Yrotation
                JOINT lMid2
                {
                  OFFSET 3.10165 -0.590103 1.0647
                  CHANNELS 3 Zrotation Xrotation Yrotation
                  End Site
                  {
                    OFFSET 2.48547 -0.328903 0.83742
                  }
                }
              }
              JOINT lRing1
              {
                OFFSET 8.82822 0.546677 1.51678
                CHANNELS 3 Zrotation Xrotation Yrotation
                JOINT lRing2
                {
                  OFFSET 2.60934 -0.819778 -0.0198488
                  CHANNELS 3 Zrotation Xrotation Yrotation
                  End Site
                  {
                    OFFSET 2.33842 -0.294052 0.168128
                  }
                }
              }
              JOINT lPinky1
              {
                OFFSET 8.27202 -0.0477905 -0.4584
                CHANNELS 3 Zrotation Xrotation Yrotation
                JOINT lPinky2
                {
                  OFFSET 1.82734 -0.647385 -0.700984
                  CHANNELS 3 Zrotation Xrotation Yrotation
                  End Site
                  {
                    OFFSET 1.69225 -0.51767 -0.607171
                  }
                }
              }
            }
          }
        }
      }
    }
  }
  JOINT rButtock
  {
    OFFSET -8.77824 4.35084 1.2192
    CHANNELS 3 Zrotation Xrotation Yrotation
    JOINT rThigh
    {
      OFFSET 0 -1.70687 -2.19456
      CHANNELS 3 Zrotation Xrotation Yrotation
      JOINT rShin
      {
        OFFSET 0 -36.8199 0.73152
        CHANNELS 3 Zrotation Xrotation Yrotation
        JOINT rFoot
        {
          OFFSET 0.73152 -45.1104 -5.12064
          CHANNELS 3 Zrotation Xrotation Yrotation
          End Site
          {
            OFFSET -1.1221 -3.69964 12.103
          }
        }
      }
    }
  }
  JOINT lButtock
  {
    OFFSET 8.77824 4.35084 1.2192
    CHANNELS 3 Zrotation Xrotation Yrotation
    JOINT lThigh
    {
      OFFSET 0 -1.70687 -2.19456
      CHANNELS 3 Zrotation Xrotation Yrotation
      JOINT lShin
      {
        OFFSET 0 -36.8199 0.73152
        CHANNELS 3 Zrotation Xrotation Yrotation
        JOINT lFoot
        {
          OFFSET -0.73152 -45.1104 -5.12064
          CHANNELS 3 Zrotation Xrotation Yrotation
          End Site
          {
            OFFSET 1.1221 -3.69964 12.103
          }
        }
      }
    }
  }
}
MOTION
Frames:	6
Frame Time:	0.00833333
86.4682 83.6929 -13.1126 10.2104 -6.72168 -176.783 -16.9955 -0.404311 -6.91425 4.5942 0.587242 -1.71573 -4.32068 7.99202 -2.39216 23.3025 -27.7796 2.87298 -0 0 0 -0 0 0 1.49135e-013 -4.91477e-014 3.76379e-014 84.2298 6.2189 -12.127 -10.7633 -4.61944 19.239 -0.864815 25.4055 3.8281 -1.52779e-009 1.85996e-010 -3.42105e-010 -2.64386e-009 3.21689e-010 -5.59566e-010 -1.52779e-009 1.86e-010 -3.42109e-010 7.73091 5.47488 0.417314 -1.5278e-009 1.86001e-010 -3.42102e-010 2.90554 0.965183 0.102902 -1.52778e-009 1.86002e-010 -3.42106e-010 10.2786 0.731801 0.0259123 -1.52779e-009 1.86001e-010 -3.42097e-010 2.22167 -0.733487 -0.20892 1.49148e-013 -4.91513e-014 3.75614e-014 -65.2786 -7.87301 -45.2637 24.5242 -20.1105 -51.3092 8.6646 -60.9649 14.6665 6.7271e-011 -1.74786e-009 5.78442e-010 8.85642e-011 -2.88523e-009 9.98538e-010 6.72673e-011 -1.74786e-009 5.78454e-010 -7.73091 5.47488 -0.417314 6.7254e-011 -1.74783e-009 5.78443e-010 -2.90554 0.965183 -0.102902 6.72651e-011 -1.74786e-009 5.78451e-010 -10.2786 0.731801 -0.0259123 6.72765e-011 -1.74786e-009 5.78446e-010 -2.22167 -0.733487 0.20892 -2.03217e-016 0 -3.88251e-019 -9.7745 -38.5638 11.2772 -0.114539 24.2676 0.388722 -3.66763 -5.98384 -17.3376 2.03217e-016 0 3.88251e-019 -11.4814 4.75495 1.80333 -8.43032e-005 6.78602 -0.185859 0.632546 -2.93317 2.36525 
86.5965 83.7283 -14.0178 10.3205 -6.84818 -176.89 -17.0824 -0.600046 -7.01913 4.67249 0.678363 -1.74544 -4.28965 7.96765 -2.36444 23.1091 -27.9229 2.89166 -0 0 0 -0 0 0 -2.12708e-014 1.33982e-013 5.55727e-014 84.1371 5.76421 -12.2778 -10.5453 -4.4811 18.8253 -0.877053 25.5682 3.8563 8.9113e-010 5.97192e-010 -4.06016e-010 1.53152e-009 1.02972e-009 -7.204e-010 8.91133e-010 5.97195e-010 -4.06023e-010 7.73091 5.47488 0.417314 8.91125e-010 5.97198e-010 -4.06015e-010 2.90554 0.965183 0.102902 8.91138e-010 5.97198e-010 -4.0602e-010 10.2786 0.731801 0.0259123 8.91134e-010 5.97198e-010 -4.06013e-010 2.22167 -0.733487 -0.20892 -2.12954e-014 1.3398e-013 5.55137e-014 -64.888 -8.66391 -45.4102 24.7105 -20.489 -51.9306 8.89569 -61.3875 14.9304 1.54383e-010 -1.40706e-009 2.32351e-010 2.55874e-010 -2.32953e-009 4.04918e-010 1.54378e-010 -1.40706e-009 2.32359e-010 -7.73091 5.47488 -0.417314 1.54371e-010 -1.40704e-009 2.32354e-010 -2.90554 0.965183 -0.102902 1.54374e-010 -1.40706e-009 2.32357e-010 -10.2786 0.731801 -0.0259123 1.54388e-010 -1.40706e-009 2.32348e-010 -2.22167 -0.733487 0.20892 -2.03217e-016 0 -3.88251e-019 -9.49743 -38.6148 13.5387 -0.0991323 22.6151 0.391862 -3.93262 -6.42883 -18.0946 2.03217e-016 0 3.88251e-019 -11.5185 6.53316 1.71439 -0.0066926 4.32065 -0.160936 0.553541 -1.70227 2.15486 
86.6989 83.7862 -14.9973 10.3947 -6.96214 -177.001 -17.1197 -0.776823 -7.10825 4.73363 0.773219 -1.77282 -4.23994 7.93712 -2.33775 22.9005 -28.0839 2.90749 -0 0 0 -0 0 0 -1.84115e-013 3.07967e-013 6.99854e-014 84.0473 5.33495 -12.4102 -10.3244 -4.34197 18.4093 -0.883797 25.6706 3.87366 3.24624e-009 9.69519e-010 -4.67196e-010 5.59679e-009 1.67073e-009 -8.74954e-010 3.24625e-009 9.69521e-010 -4.67207e-010 7.73091 5.47488 0.417314 3.24624e-009 9.69524e-010 -4.67198e-010 2.90554 0.965183 0.102902 3.24625e-009 9.69523e-010 -4.67203e-010 10.2786 0.731801 0.0259123 3.24625e-009 9.69524e-010 -4.67197e-010 2.22167 -0.733487 -0.20892 -1.8418e-013 3.07967e-013 6.99361e-014 -64.5085 -9.45493 -45.5254 24.8754 -20.832 -52.4991 9.14773 -61.8326 15.2169 2.36192e-010 -9.72741e-010 -1.28482e-010 4.14794e-010 -1.62027e-009 -2.14192e-010 2.36187e-010 -9.7274e-010 -1.28476e-010 -7.73091 5.47488 -0.417314 2.36187e-010 -9.72736e-010 -1.28477e-010 -2.90554 0.965183 -0.102902 2.3618e-010 -9.72743e-010 -1.28479e-010 -10.2786 0.731801 -0.0259123 2.36197e-010 -9.72746e-010 -1.28491e-010 -2.22167 -0.733487 0.20892 -2.03217e-016 0 -3.88251e-019 -9.1801 -38.6193 15.7257 -0.0850266 21.1761 0.398373 -4.21323 -6.87667 -18.8478 2.03217e-016 0 3.88251e-019 -11.5062 8.20398 1.62673 -0.0116118 2.08592 -0.139982 0.48848 -0.573816 1.94506 
86.8191 83.737 -15.8967 10.4281 -7.04084 -177.116 -17.0896 -0.871453 -7.18682 4.77316 0.839624 -1.79911 -4.19583 7.84648 -2.31327 22.7228 -28.1933 2.9253 -0 0 0 -0 0 0 -2.6196e-013 3.89617e-013 7.63333e-014 83.9597 4.96968 -12.561 -10.1339 -4.22312 18.0527 -0.900783 25.9085 3.91455 4.37748e-009 1.13055e-009 -5.41594e-010 7.54843e-009 1.94794e-009 -1.02672e-009 4.37749e-009 1.13055e-009 -5.41607e-010 7.73091 5.47488 0.417314 4.37748e-009 1.13056e-009 -5.41598e-010 2.90554 0.965183 0.102902 4.37749e-009 1.13056e-009 -5.41603e-010 10.2786 0.731801 0.0259123 4.37749e-009 1.13056e-009 -5.41598e-010 2.22167 -0.733487 -0.20892 -2.62053e-013 3.89619e-013 7.62836e-014 -64.0478 -10.1304 -45.6106 25.0039 -21.1042 -52.9629 9.22311 -61.9637 15.3025 2.71136e-010 -6.63973e-010 -3.22858e-010 4.84663e-010 -1.11425e-009 -5.47998e-010 2.71131e-010 -6.6397e-010 -3.22855e-010 -7.73091 5.47488 -0.417314 2.71135e-010 -6.63978e-010 -3.22852e-010 -2.90554 0.965183 -0.102902 2.71122e-010 -6.63975e-010 -3.22857e-010 -10.2786 0.731801 -0.0259123 2.7114e-010 -6.63979e-010 -3.22871e-010 -2.22167 -0.733487 0.20892 -2.03217e-016 0 -3.88251e-019 -8.939 -38.5925 17.3008 -0.0736907 20.0081 0.398694 -4.40934 -7.21632 -19.3197 2.03217e-016 0 3.88251e-019 -11.4402 9.56326 1.54796 -0.014128 0.510835 -0.124638 0.445922 0.217679 1.7505 
86.8957 83.6798 -16.7868 10.3851 -7.0854 -177.236 -16.9353 -0.862817 -7.26329 4.77328 0.864532 -1.82739 -4.15941 7.66169 -2.28678 22.5863 -28.2166 2.95307 -0 0 0 -0 0 0 -2.10198e-013 3.31205e-013 7.09929e-014 83.8793 4.74616 -12.742 -9.98709 -4.13283 17.7782 -0.931857 26.3141 3.98538 3.63583e-009 9.73771e-010 -6.82723e-010 6.26447e-009 1.67788e-009 -1.25461e-009 3.63584e-009 9.73771e-010 -6.82736e-010 7.73091 5.47488 0.417314 3.63583e-009 9.73774e-010 -6.82727e-010 2.90554 0.965183 0.102902 3.63584e-009 9.73773e-010 -6.82732e-010 10.2786 0.731801 0.0259123 3.63583e-009 9.73775e-010 -6.82726e-010 2.22167 -0.733487 -0.20892 -2.10298e-013 3.31207e-013 7.09324e-014 -63.4535 -10.6632 -45.657 25.0928 -21.2954 -53.2906 9.04538 -61.6567 15.1011 2.35461e-010 -5.35327e-010 -2.65609e-010 4.20274e-010 -8.99582e-010 -4.50527e-010 2.35457e-010 -5.35325e-010 -2.65605e-010 -7.73091 5.47488 -0.417314 2.35463e-010 -5.35334e-010 -2.65601e-010 -2.90554 0.965183 -0.102902 2.35448e-010 -5.35329e-010 -2.65608e-010 -10.2786 0.731801 -0.0259123 2.35465e-010 -5.35332e-010 -2.6562e-010 -2.22167 -0.733487 0.20892 -2.03217e-016 0 -3.88251e-019 -8.777 -38.5718 18.1485 -0.0658898 19.1205 0.389187 -4.50585 -7.47344 -19.4526 2.03217e-016 0 3.88251e-019 -11.2855 10.4779 1.48023 -0.0149009 -0.148898 -0.115952 0.428095 0.506974 1.58923 
86.9908 83.6188 -17.7042 10.28 -7.10552 -177.361 -16.683 -0.786109 -7.33248 4.74186 0.866599 -1.85609 -4.11905 7.41808 -2.25921 22.467 -28.1962 2.98593 -0 0 0 -0 0 0 -7.81147e-014 1.85614e-013 5.7191e-014 83.8059 4.62106 -12.9329 -9.86557 -4.05942 17.5505 -0.969659 26.7897 4.06931 1.75321e-009 6.11311e-010 -8.65656e-010 3.00934e-009 1.05359e-009 -1.53076e-009 1.75322e-009 6.11311e-010 -8.65669e-010 7.73091 5.47488 0.417314 1.75321e-009 6.11313e-010 -8.65661e-010 2.90554 0.965183 0.102902 1.75322e-009 6.11312e-010 -8.65664e-010 10.2786 0.731801 0.0259123 1.75321e-009 6.11313e-010 -8.65656e-010 2.22167 -0.733487 -0.20892 -7.82098e-014 1.85616e-013 5.71102e-014 -62.7815 -11.1159 -45.662 25.1549 -21.4313 -53.5129 8.7364 -61.1019 14.7492 1.55558e-010 -4.71252e-010 -6.5655e-011 2.72544e-010 -7.88336e-010 -1.08568e-010 1.55556e-010 -4.71251e-010 -6.56506e-011 -7.73091 5.47488 -0.417314 1.55561e-010 -4.71258e-010 -6.56473e-011 -2.90554 0.965183 -0.102902 1.55548e-010 -4.71253e-010 -6.5655e-011 -10.2786 0.731801 -0.0259123 1.55562e-010 -4.71255e-010 -6.56631e-011 -2.22167 -0.733487 0.20892 -2.03217e-016 0 -3.88251e-019 -8.64635 -38.5641 18.5461 -0.0609985 18.4849 0.375235 -4.54523 -7.69178 -19.3878 2.03217e-016 0 3.88251e-019 -11.0584 11.0829 1.41884 -0.0152699 -0.169172 -0.112611 0.424481 0.453164 1.44809 
